<svg width="143" height="43" viewBox="0 0 143 43" fill="none" xmlns="http://www.w3.org/2000/svg">
<rect x="0.534614" y="1.31635" width="141.492" height="40.3454" rx="3.3064" fill="black" stroke="#A6A6A6" stroke-width="0.734756"/>
<path d="M39.0062 19.8608C38.9828 17.135 41.2877 15.8102 41.3889 15.7493C40.0807 13.8915 38.0562 13.6326 37.3477 13.6097C35.6502 13.4346 33.9994 14.6072 33.1351 14.6072C32.2553 14.6072 30.916 13.6326 29.4833 13.6554C27.6378 13.6859 25.9014 14.729 24.9593 16.3584C23.0048 19.6705 24.4609 24.5434 26.3375 27.2236C27.2797 28.5332 28.3698 30.0027 29.8103 29.9494C31.2119 29.8961 31.7413 29.0738 33.431 29.0738C35.1129 29.0738 35.6035 29.9494 37.0673 29.9189C38.5779 29.8961 39.5201 28.6017 40.4311 27.2769C41.5135 25.7769 41.9495 24.2922 41.9651 24.216C41.9262 24.2008 39.0373 23.1196 39.0062 19.8608" fill="white"/>
<path d="M36.2425 11.8507C36.9978 10.9293 37.5118 9.67291 37.3716 8.39368C36.2815 8.43936 34.9111 9.13228 34.1246 10.0384C33.4316 10.8379 32.8087 12.14 32.9644 13.3659C34.1947 13.4573 35.4561 12.7568 36.2425 11.8507" fill="white"/>
<path d="M59.3447 29.7587H57.3825L56.308 26.4542H52.5704L51.5504 29.7587H49.6427L53.3413 18.5127H55.6305L59.3447 29.7587ZM55.9887 25.0684L55.0154 22.137C54.9142 21.8324 54.7195 21.1319 54.4392 20.0203H54.4003C54.2835 20.5 54.1044 21.2081 53.8552 22.137L52.8975 25.0684H55.9887Z" fill="white"/>
<path d="M68.8523 25.6092C68.8523 26.9874 68.4708 28.0762 67.6999 28.8757C67.0147 29.5914 66.1581 29.9417 65.1459 29.9417C64.048 29.9417 63.2615 29.561 62.7788 28.7919V33.0482H60.9334V24.3149C60.9334 23.4469 60.91 22.5636 60.8633 21.6499H62.4829L62.5841 22.9367H62.6153C63.2304 21.9697 64.1648 21.4824 65.4106 21.4824C66.3917 21.4824 67.2015 21.8631 67.8556 22.6169C68.5253 23.3783 68.8523 24.3682 68.8523 25.6092V25.6092ZM66.9757 25.6702C66.9757 24.8783 66.7966 24.2311 66.4307 23.721C66.0336 23.188 65.4963 22.9215 64.8266 22.9215C64.375 22.9215 63.9623 23.0738 63.5886 23.3631C63.2226 23.66 62.9734 24.0407 62.8644 24.5204C62.8099 24.7412 62.7788 24.924 62.7788 25.0686V26.424C62.7788 27.0102 62.9657 27.5128 63.3316 27.9163C63.6976 28.3199 64.1804 28.5254 64.7721 28.5254C65.4651 28.5254 66.0024 28.2589 66.3917 27.7412C66.7811 27.2158 66.9757 26.5306 66.9757 25.6702V25.6702Z" fill="white"/>
<path d="M78.3829 25.6092C78.3829 26.9874 78.0014 28.0762 77.2305 28.8757C76.5453 29.5914 75.6888 29.9417 74.6765 29.9417C73.5786 29.9417 72.7922 29.561 72.3094 28.7919V33.0482H70.464V24.3149C70.464 23.4469 70.4406 22.5636 70.3939 21.6499H72.0135L72.1148 22.9367H72.1459C72.761 21.9697 73.6954 21.4824 74.9413 21.4824C75.9224 21.4824 76.7322 21.8631 77.3863 22.6169C78.0559 23.3783 78.3829 24.3682 78.3829 25.6092ZM76.5064 25.6702C76.5064 24.8783 76.3273 24.2311 75.9613 23.721C75.5642 23.188 75.0269 22.9215 74.3573 22.9215C73.9057 22.9215 73.493 23.0738 73.1192 23.3631C72.7532 23.66 72.5119 24.0407 72.3951 24.5204C72.3406 24.7412 72.3094 24.924 72.3094 25.0686V26.424C72.3094 27.0102 72.4963 27.5128 72.8623 27.9163C73.2282 28.3199 73.711 28.5254 74.3028 28.5254C74.9958 28.5254 75.5408 28.2589 75.9224 27.7412C76.3195 27.2158 76.5064 26.5306 76.5064 25.6702V25.6702Z" fill="white"/>
<path d="M89.0503 26.6072C89.0503 27.5666 88.7077 28.3432 88.0302 28.9447C87.2827 29.5995 86.2393 29.9269 84.9 29.9269C83.662 29.9269 82.6731 29.6909 81.9255 29.2264L82.3538 27.7265C83.1636 28.1909 84.0513 28.427 85.0168 28.427C85.7098 28.427 86.2549 28.2747 86.6364 27.9701C87.0258 27.6655 87.2204 27.2544 87.2204 26.7442C87.2204 26.2874 87.0569 25.9067 86.7455 25.5945C86.4262 25.2823 85.8967 24.993 85.157 24.7265C83.1247 23.9879 82.1202 22.9144 82.1202 21.5057C82.1202 20.5844 82.4784 19.8306 83.187 19.2367C83.8956 18.6505 84.8377 18.3535 86.0135 18.3535C87.0569 18.3535 87.929 18.5286 88.622 18.8865L88.1548 20.3484C87.5008 20.0058 86.7688 19.8306 85.9434 19.8306C85.2971 19.8306 84.7832 19.9905 84.4173 20.2951C84.1136 20.5768 83.9578 20.9118 83.9578 21.3154C83.9578 21.757 84.1369 22.1301 84.4873 22.4118C84.791 22.6783 85.3516 22.9677 86.1615 23.2798C87.1504 23.6681 87.8745 24.125 88.3417 24.6504C88.8167 25.1757 89.0503 25.8305 89.0503 26.6072" fill="white"/>
<path d="M95.1553 23.0056H93.123V26.9421C93.123 27.9395 93.4812 28.442 94.1975 28.442C94.5246 28.442 94.7971 28.4116 95.0151 28.3583L95.0696 29.7288C94.7037 29.8582 94.2287 29.9268 93.6369 29.9268C92.905 29.9268 92.3443 29.706 91.9317 29.272C91.519 28.838 91.3165 28.107 91.3165 27.0867V22.998H90.1096V21.6503H91.3165V20.1656L93.123 19.6326V21.6503H95.1553V23.0056" fill="white"/>
<path d="M104.297 25.6398C104.297 26.8885 103.931 27.9089 103.207 28.7084C102.444 29.5307 101.432 29.9419 100.17 29.9419C98.9554 29.9419 97.982 29.5459 97.2579 28.7617C96.5337 27.9774 96.1755 26.9799 96.1755 25.7769C96.1755 24.5205 96.5493 23.4926 97.289 22.6931C98.0365 21.8935 99.041 21.49 100.302 21.49C101.517 21.49 102.498 21.8859 103.238 22.6778C103.947 23.4393 104.297 24.4291 104.297 25.6398V25.6398ZM102.389 25.6779C102.389 24.9317 102.226 24.2997 101.899 23.7667C101.509 23.1195 100.957 22.7997 100.24 22.7997C99.5004 22.7997 98.932 23.1195 98.5505 23.7667C98.2156 24.2997 98.0599 24.9469 98.0599 25.7159C98.0599 26.4621 98.2234 27.1017 98.5505 27.6271C98.9476 28.2743 99.5082 28.5941 100.225 28.5941C100.925 28.5941 101.478 28.2667 101.883 27.6119C102.218 27.0637 102.389 26.4241 102.389 25.6779V25.6779Z" fill="white"/>
<path d="M110.292 23.2336C110.113 23.2032 109.918 23.1879 109.708 23.1879C109.062 23.1879 108.556 23.424 108.205 23.9037C107.902 24.3224 107.746 24.863 107.746 25.5026V29.7588H105.901V24.2006C105.901 23.2641 105.885 22.4113 105.846 21.6499H107.45L107.52 23.2032H107.575C107.769 22.6702 108.073 22.2362 108.494 21.9164C108.906 21.6271 109.35 21.4824 109.825 21.4824C109.996 21.4824 110.152 21.4976 110.284 21.5129L110.292 23.2336" fill="white"/>
<path d="M118.53 25.3199C118.53 25.6397 118.507 25.9138 118.46 26.1346H112.932C112.955 26.9341 113.22 27.5508 113.734 27.9696C114.201 28.3426 114.801 28.533 115.54 28.533C116.358 28.533 117.105 28.4036 117.775 28.1523L118.063 29.401C117.277 29.736 116.35 29.9035 115.283 29.9035C113.999 29.9035 112.986 29.5304 112.254 28.7919C111.522 28.0533 111.156 27.0559 111.156 25.8148C111.156 24.5966 111.499 23.5764 112.184 22.7617C112.901 21.8937 113.866 21.4597 115.081 21.4597C116.272 21.4597 117.183 21.8937 117.791 22.7617C118.281 23.4622 118.53 24.3073 118.53 25.3199V25.3199ZM116.771 24.8555C116.786 24.3225 116.662 23.8581 116.412 23.4698C116.093 22.9673 115.603 22.716 114.948 22.716C114.349 22.716 113.858 22.9596 113.485 23.4469C113.181 23.8352 112.994 24.3073 112.94 24.8479L116.771 24.8555V24.8555Z" fill="white"/>
<path d="M55.1016 14.4927H54.136L53.6065 12.871H51.7689L51.2628 14.4927H50.3284L52.1426 8.96509H53.2639L55.1016 14.4927ZM53.443 12.1857L52.968 10.7391C52.9213 10.5944 52.8279 10.2442 52.6799 9.69601H52.6644C52.6021 9.93204 52.5242 10.2747 52.3918 10.7391L51.9246 12.1857H53.443Z" fill="white"/>
<path d="M59.6483 10.5029L58.1066 14.4937H57.2267L55.7317 10.5029H56.705L57.398 12.6126C57.5148 12.9629 57.616 13.298 57.6939 13.6179H57.7173C57.7873 13.3285 57.8886 12.9934 58.0132 12.6126L58.6984 10.5029H59.6483" fill="white"/>
<path d="M62.9342 14.4927L62.8642 14.0359H62.8408C62.5605 14.4014 62.1634 14.5841 61.6494 14.5841C60.9175 14.5841 60.4036 14.0816 60.4036 13.4115C60.4036 12.4293 61.2757 11.9191 62.7863 11.9191V11.843C62.7863 11.3176 62.4982 11.0587 61.9375 11.0587C61.5326 11.0587 61.1822 11.1577 60.8708 11.3557L60.6839 10.777C61.0576 10.5485 61.5326 10.4343 62.0855 10.4343C63.1523 10.4343 63.6895 10.9826 63.6895 12.0866V13.5562C63.6895 13.9597 63.7051 14.2719 63.7518 14.508L62.9342 14.4927V14.4927ZM62.8096 12.5054C61.8052 12.5054 61.299 12.7414 61.299 13.3125C61.299 13.7313 61.556 13.9369 61.922 13.9369C62.3814 13.9369 62.8096 13.5942 62.8096 13.1222V12.5054Z" fill="white"/>
<path d="M65.7067 9.84789C65.403 9.84789 65.1694 9.61947 65.1694 9.31491C65.1694 9.01036 65.4108 8.78955 65.7223 8.78955C66.0337 8.78955 66.2829 9.01036 66.2751 9.31491C66.2751 9.6347 66.0415 9.84789 65.7067 9.84789V9.84789ZM65.2707 10.5027H66.1739V14.4848H65.2707V10.5027V10.5027Z" fill="white"/>
<path d="M67.7854 8.67517H68.6886V14.4848H67.7854V8.67517Z" fill="white"/>
<path d="M72.5353 14.4926L72.4652 14.0357H72.4418C72.1615 14.4012 71.7644 14.5839 71.2505 14.5839C70.5186 14.5839 70.0046 14.0814 70.0046 13.4114C70.0046 12.4292 70.8767 11.9191 72.3873 11.9191V11.8429C72.3873 11.3176 72.0992 11.0587 71.5386 11.0587C71.1337 11.0587 70.7833 11.1577 70.4718 11.3557L70.285 10.7694C70.6587 10.541 71.1337 10.4268 71.6865 10.4268C72.7533 10.4268 73.2906 10.975 73.2906 12.079V13.5484C73.2906 13.952 73.3062 14.2641 73.3451 14.5002H72.5353V14.4926V14.4926ZM72.4107 12.5053C71.4062 12.5053 70.9001 12.7414 70.9001 13.3124C70.9001 13.7312 71.1571 13.9368 71.523 13.9368C71.9824 13.9368 72.4107 13.5941 72.4107 13.1221V12.5053Z" fill="white"/>
<path d="M76.9653 14.5839C76.3891 14.5839 75.9609 14.3479 75.6805 13.8758H75.665L75.6105 14.4925H74.8396C74.863 14.1727 74.8707 13.8149 74.8707 13.4189V8.67517H75.7818V11.0889H75.7973C76.0699 10.6473 76.4981 10.4265 77.0977 10.4265C78.0788 10.4265 78.764 11.2488 78.764 12.4443C78.764 13.6778 78.001 14.5839 76.9653 14.5839V14.5839ZM76.7785 11.1194C76.2568 11.1194 75.7818 11.561 75.7818 12.1778V12.8783C75.7818 13.4265 76.21 13.8758 76.7629 13.8758C77.4403 13.8758 77.8452 13.3351 77.8452 12.4747C77.8452 11.6676 77.4247 11.1194 76.7785 11.1194V11.1194Z" fill="white"/>
<path d="M80.1039 8.67517H81.0071V14.4848H80.1039V8.67517Z" fill="white"/>
<path d="M85.9357 12.7111H83.2182C83.2337 13.4649 83.7477 13.8913 84.5029 13.8913C84.9079 13.8913 85.2738 13.8227 85.6009 13.7009L85.741 14.3176C85.3595 14.4851 84.9078 14.5613 84.3784 14.5613C83.1014 14.5613 82.3461 13.7771 82.3461 12.5512C82.3461 11.333 83.1169 10.4117 84.2771 10.4117C85.3128 10.4117 85.9746 11.1655 85.9746 12.3076C85.9746 12.4675 85.9668 12.6045 85.9357 12.7111V12.7111ZM85.1103 12.0792C85.1103 11.4625 84.7911 11.0285 84.2148 11.0285C83.6931 11.0285 83.2882 11.4701 83.226 12.0792H85.1103Z" fill="white"/>
<path d="M91.4251 14.5839C90.2338 14.5839 89.4629 13.7159 89.4629 12.5358C89.4629 11.3024 90.2493 10.4268 91.4952 10.4268C92.671 10.4268 93.4574 11.2567 93.4574 12.4673C93.4574 13.7083 92.6476 14.5839 91.4251 14.5839ZM91.464 11.0739C90.81 11.0739 90.3895 11.6754 90.3895 12.5053C90.3895 13.3276 90.8178 13.9215 91.4563 13.9215C92.0948 13.9215 92.523 13.282 92.523 12.4825C92.5152 11.6754 92.1025 11.0739 91.464 11.0739V11.0739Z" fill="white"/>
<path d="M98.3241 14.4929H97.4208V12.201C97.4208 11.4929 97.1405 11.1427 96.5955 11.1427C96.0582 11.1427 95.6922 11.5919 95.6922 12.1173V14.4853H94.789V11.6452C94.789 11.2949 94.7812 10.9142 94.7578 10.5031H95.5521L95.591 11.1198H95.6143C95.8557 10.6934 96.3541 10.4193 96.9069 10.4193C97.7635 10.4193 98.3241 11.0589 98.3241 12.102V14.4929Z" fill="white"/>
<path d="M104.25 11.1728H103.253V13.1068C103.253 13.6017 103.432 13.8454 103.782 13.8454C103.938 13.8454 104.078 13.8302 104.187 13.8073L104.211 14.4774C104.032 14.5459 103.798 14.5763 103.51 14.5763C102.794 14.5763 102.373 14.188 102.373 13.183V11.1728H101.781V10.5104H102.373V9.77943L103.261 9.51294V10.5028H104.257V11.1728" fill="white"/>
<path d="M109.047 14.4924H108.143V12.2158C108.143 11.5001 107.863 11.1422 107.318 11.1422C106.851 11.1422 106.415 11.4544 106.415 12.0863V14.4848H105.511V8.67517H106.415V11.066H106.43C106.718 10.632 107.123 10.4188 107.653 10.4188C108.517 10.4188 109.047 11.0737 109.047 12.1168V14.4924" fill="white"/>
<path d="M113.672 12.7111H110.954C110.97 13.4649 111.484 13.8913 112.239 13.8913C112.644 13.8913 113.01 13.8227 113.337 13.7009L113.477 14.3176C113.096 14.4851 112.644 14.5613 112.115 14.5613C110.838 14.5613 110.082 13.7771 110.082 12.5512C110.082 11.333 110.853 10.4117 112.013 10.4117C113.049 10.4117 113.711 11.1655 113.711 12.3076C113.711 12.4675 113.703 12.6045 113.672 12.7111V12.7111ZM112.847 12.0792C112.847 11.4625 112.527 11.0285 111.951 11.0285C111.429 11.0285 111.017 11.4701 110.962 12.0792H112.847Z" fill="white"/>
</svg>
