<svg width="264" height="36" viewBox="0 0 264 36" fill="none" xmlns="http://www.w3.org/2000/svg">
<path d="M95.6193 11.0026C95.6193 5.23275 90.9167 0.531372 85.1454 0.531372H67.6888V34.7232H75.4552V21.4739H81.6541L89.2067 34.7232H97.8281L89.6342 20.4054C93.3393 18.6958 95.6193 14.9917 95.6193 11.0026ZM83.5778 14.8492H75.3839V7.15604H83.7203C86.2854 7.2985 87.9242 8.7944 87.9242 11.0026C87.8529 13.2108 86.1429 14.778 83.5778 14.8492ZM54.0085 0.602604H61.9887V21.1889C61.9887 30.1643 56.4311 35.578 47.0971 35.578C37.7632 35.578 32.2056 30.2355 32.2056 21.1889V0.602604H40.1858V20.6903C40.1858 25.5341 42.7508 28.3122 47.0971 28.3122C51.5147 28.3122 54.0798 25.5341 54.0798 20.6903V0.602604H54.0085ZM142.289 27.8848H160.743V34.7232H134.38V0.531372H159.888V7.08481H142.36V13.9232H157.751V20.6191H142.36V27.8848H142.289ZM21.6604 15.7752C24.083 14.2793 25.5792 11.6437 25.5792 8.7944C25.5792 4.30672 21.9454 0.602605 17.3853 0.531372H0V34.7232H18.8816C24.2255 34.7232 28.5005 30.378 28.5005 25.0355C28.5005 21.2602 26.2917 17.3424 21.6604 15.7752ZM7.83765 6.94233H14.2503C16.1741 6.94233 17.8128 8.58069 17.8128 10.504C17.8128 12.4985 16.2453 14.0656 14.2503 14.0656H7.83765V6.94233ZM16.6016 28.3122H7.83765V20.3341H16.5303C19.3804 20.3341 20.7341 22.6136 20.7341 24.252C20.7341 26.3177 19.3091 28.3122 16.6016 28.3122ZM193.946 11.0026C193.946 5.23275 189.244 0.531372 183.472 0.531372H166.016V34.7232H173.782V21.4739H179.981L187.534 34.7232H196.155L187.961 20.4054C191.595 18.6958 193.946 14.9917 193.946 11.0026ZM181.833 14.8492H173.64V7.15604H181.976C184.541 7.2985 186.18 8.7944 186.18 11.0026C186.18 13.2108 184.398 14.778 181.833 14.8492ZM123.194 15.7752C125.616 14.2793 127.112 11.6437 127.112 8.7944C127.112 4.30672 123.479 0.602605 118.919 0.531372H101.533V34.7232H120.415C125.759 34.7232 130.034 30.378 130.034 25.0355C130.034 21.2602 127.754 17.3424 123.194 15.7752ZM109.371 6.94233H115.783C117.707 6.94233 119.346 8.58069 119.346 10.504C119.346 12.4985 117.778 14.0656 115.783 14.0656H109.371V6.94233ZM118.063 28.3122H109.371V20.3341H118.063C120.914 20.3341 122.267 22.6136 122.267 24.252C122.267 26.3177 120.842 28.3122 118.063 28.3122ZM263.345 0.531372L249.736 20.7615V34.652H241.328V20.7615L227.791 0.531372H237.766L245.603 12.2848L253.441 0.531372H263.345ZM227.719 11.0026C227.719 5.23275 223.017 0.531372 217.245 0.531372H199.789V34.7232H207.555V21.4739H213.754L221.307 34.7232H229.999L221.805 20.4054C225.439 18.6958 227.719 14.9917 227.719 11.0026ZM215.607 14.8492H207.413V7.15604H215.749C218.314 7.2985 219.953 8.7944 219.953 11.0026C219.953 13.2108 218.243 14.778 215.607 14.8492Z" fill="#A7A7A7"/>
</svg>
