<svg width="205" height="38" viewBox="0 0 205 38" fill="none" xmlns="http://www.w3.org/2000/svg">
<path d="M103.971 5.84212C104.089 6.48883 104.089 7.13554 104.089 7.78225C104.089 15.7192 104.089 23.7149 104.089 31.6518C104.089 34.1211 103.207 36.0612 100.913 37.0607C98.4431 38.1189 96.0909 37.7074 94.0914 35.8848C92.8565 34.7678 91.9155 33.3568 90.857 32.0045C88.0931 28.477 85.0939 25.0671 82.7416 21.1868C82.8004 21.128 82.7416 21.128 82.6828 21.0692C82.5652 21.2456 82.624 21.4808 82.624 21.6572C82.624 24.7731 82.624 27.8303 82.624 30.8875C82.624 31.7694 82.5064 32.5925 82.2712 33.4156C81.5067 36.0612 79.272 37.6486 76.5081 37.4722C73.0973 37.237 71.1566 35.1793 70.9214 31.593C70.8626 31.2402 70.8626 30.8875 70.8626 30.5347C70.8626 22.5978 70.8626 14.6609 70.8626 6.72399C70.8626 4.25473 71.8035 2.3146 74.1558 1.31513C76.5669 0.315668 78.8604 0.66842 80.8598 2.49097C81.9183 3.43164 82.6828 4.72507 83.5649 5.90091C86.2113 9.48722 89.034 13.0147 91.5039 16.7774C91.7391 17.189 91.9743 17.5417 92.386 17.8945C92.386 17.7181 92.386 17.4829 92.386 17.3065C92.386 14.0142 92.386 10.7219 92.386 7.4295C92.386 6.07729 92.6212 4.72507 93.3269 3.54923C94.6207 1.37393 96.6201 0.668422 98.9724 0.90359C101.736 1.13876 103.618 3.0201 103.971 5.84212ZM189.829 4.78386C189.241 2.78493 187.948 1.37392 185.831 0.962381C183.596 0.550837 181.538 0.844797 179.95 2.72614C178.891 4.01956 178.538 5.54816 178.538 7.13554C178.538 10.4867 178.538 13.8966 178.538 17.2478C178.538 17.4829 178.538 17.6593 178.538 18.0708C178.127 17.3653 177.833 16.895 177.48 16.3659C174.422 11.8977 171.129 7.66467 167.894 3.31406C167.483 2.78493 166.953 2.3146 166.365 1.90305C164.307 0.550836 162.19 0.433255 160.014 1.43272C158.074 2.37339 157.074 4.01957 157.074 6.13608C157.015 14.4845 157.074 22.8918 157.074 31.2403C157.074 31.4166 157.133 31.6518 157.133 31.8282C157.368 35.1793 159.367 37.2958 162.661 37.531C164.954 37.7074 167.071 36.5315 168.071 34.5326C168.482 33.6507 168.776 32.7688 168.776 31.8282C168.776 28.4182 168.835 25.1259 168.835 21.7747C168.835 21.5984 168.835 21.3632 168.835 21.128C168.894 21.128 168.894 21.128 168.835 21.128C169.188 21.7159 169.482 22.2451 169.894 22.7742C172.893 27.066 176.304 31.0051 179.479 35.1205C179.715 35.4145 180.067 35.7672 180.361 36.0024C182.361 37.6486 184.654 37.9425 187.007 36.9431C189.3 35.9436 190.182 34.0035 190.182 31.593C190.182 23.6561 190.182 15.6604 190.182 7.66467C190.182 6.724 190.123 5.72453 189.829 4.78386ZM31.8147 12.6032C34.1669 19.1291 33.4025 25.361 28.7567 30.8287C25.9339 34.1798 22.1115 35.9436 17.8186 36.5315C13.8785 37.1194 9.8796 36.7079 5.88071 36.7667C5.70429 36.7667 5.46906 36.7079 5.29264 36.6491C2.17586 36.12 0 33.5331 0 30.4172C0 22.8918 0 15.3664 0 7.89983C0 4.37231 2.70513 1.5503 6.29236 1.49151C7.88015 1.49151 9.46795 1.49151 11.291 1.49151C13.3492 1.5503 15.7015 1.31513 18.0538 1.78547C24.5226 3.0201 29.5212 6.25366 31.8147 12.6032ZM21.2882 19.1879C21.347 15.8955 19.1711 13.3087 15.8779 12.8971C14.643 12.7208 13.4668 12.8384 12.2319 12.7796C11.7614 12.7208 11.6438 12.8972 11.6438 13.3675C11.7026 15.3076 11.7026 17.2478 11.7026 19.1879C11.7026 21.128 11.7026 23.0682 11.7026 25.0083C11.7026 25.3023 11.6438 25.5374 12.1143 25.5374C13.3492 25.4786 14.5842 25.5962 15.8191 25.4198C19.0535 25.0083 21.2294 22.5978 21.2882 19.1879ZM129.434 19.4231C129.14 19.0703 129.14 18.8939 129.434 18.5412C131.493 16.1895 133.551 13.8378 135.55 11.4273C136.55 10.1927 137.197 8.84051 137.315 7.25313C137.55 3.7844 134.257 0.609629 130.787 0.962381C128.788 1.13876 127.376 2.25581 126.2 3.7844C124.142 6.48883 121.966 9.07567 119.849 11.7801C119.849 10.0163 119.908 8.25259 119.908 6.54762C119.79 3.13769 117.379 0.844799 114.086 0.786007C110.734 0.786007 108.264 3.13769 108.205 6.54762C108.146 14.9549 108.146 23.3621 108.205 31.7694C108.205 35.1205 110.675 37.531 114.027 37.531C117.32 37.5898 119.731 35.1793 119.849 31.7694C119.967 30.0644 119.908 28.4182 119.908 26.7133C119.908 26.5369 119.79 26.3605 120.025 26.2429C120.143 26.4193 120.202 26.5369 120.319 26.6545C122.554 29.5353 124.906 32.2985 127.2 35.1205C128.023 36.12 128.964 36.8255 130.199 37.1782C133.727 38.2365 137.609 35.2381 137.726 31.4166C137.785 29.5941 137.138 28.1243 135.962 26.7721C133.786 24.3616 131.61 21.8335 129.434 19.4231ZM66.9225 15.778C66.9225 12.4268 66.9225 9.6636 66.8637 6.84158C66.8637 6.31246 66.8637 5.84211 66.7461 5.37178C66.0992 2.37339 63.4529 0.492048 60.3949 0.786007C57.2781 1.13876 55.1611 3.49044 55.1611 6.66521C55.1611 11.4861 55.1611 16.3659 55.1611 21.1868C55.1611 21.5396 55.1611 21.8923 55.1023 22.2451C54.8082 25.0083 52.1619 26.7133 49.7508 25.4786C48.2218 24.7143 47.6338 23.3621 47.6338 21.7159C47.6338 16.7774 47.6338 11.7801 47.6338 6.84158C47.6338 3.25527 45.2227 0.786004 41.8119 0.727212C38.4011 0.727212 35.99 3.19647 35.9312 6.72399C35.8723 11.9565 35.9312 17.189 35.9312 22.4802C35.99 23.2445 35.99 23.95 36.1076 24.6555C36.9309 30.182 39.8124 34.1798 45.0463 36.2964C47.9866 37.531 51.0446 37.7074 54.1614 37.2958C61.2182 36.4139 66.4521 30.8287 66.8637 23.7737C67.0401 20.9517 66.8637 18.0708 66.9225 15.778ZM151.193 2.25581C149.253 0.550839 147.018 0.256877 144.666 1.25634C142.431 2.2558 141.431 4.13715 141.372 6.54762C141.314 10.7219 141.372 14.8961 141.372 19.0703C141.372 23.3621 141.372 27.5364 141.314 31.7694C141.314 35.0617 143.725 37.3546 147.077 37.4722C150.252 37.5898 152.899 35.1793 152.957 31.9458C153.016 23.3621 153.016 14.7785 152.957 6.19487C152.957 4.66628 152.369 3.25527 151.193 2.25581Z" fill="#A7A7A7"/>
<path d="M193.828 9.25198C193.77 7.84097 193.828 6.42997 194.122 5.01896C194.769 2.07937 197.239 0.433196 200.238 0.903531C203.12 1.37387 205.002 3.72554 204.708 6.66514C204.473 9.07561 203.767 11.4273 202.826 13.6614C202.238 14.9548 201.415 16.013 200.003 16.4834C197.71 17.2477 195.299 16.1306 194.475 13.8377C193.887 12.368 193.828 10.7806 193.828 9.25198Z" fill="#A7A7A7"/>
</svg>
