<svg width="28" height="19" viewBox="0 0 28 19" fill="none" xmlns="http://www.w3.org/2000/svg">
<path d="M24.4899 7.65617V4.11623H22.793V7.65617H19.3991V9.42614H22.793V12.9661H24.4899V9.42614H27.8838V7.65617H24.4899ZM9.21756 7.65617V11.1961H14.0178C13.6657 12.2307 13.0153 13.1263 12.1559 13.76C11.2965 14.3938 10.2701 14.7347 9.21756 14.736C7.86795 14.7342 6.57413 14.1741 5.61981 13.1787C4.66549 12.1833 4.12857 10.8338 4.12677 9.42614C4.12857 8.01844 4.66549 6.66893 5.61981 5.67354C6.57413 4.67814 7.86795 4.11811 9.21756 4.11623C10.4339 4.11623 11.6055 4.57076 12.515 5.39769L14.7428 2.72858C13.2106 1.33887 11.248 0.574384 9.21756 0.576298C6.96806 0.578921 4.81142 1.51215 3.22078 3.17125C1.63015 4.83035 0.735425 7.07982 0.73291 9.42614C0.735425 11.7725 1.63015 14.0219 3.22078 15.681C4.81142 17.3401 6.96806 18.2734 9.21756 18.276C11.4671 18.2734 13.6237 17.3401 15.2143 15.681C16.805 14.0219 17.6997 11.7725 17.7022 9.42614V7.65617H9.21756Z" fill="black"/>
</svg>
