<svg width="145" height="33" viewBox="0 0 145 33" fill="none" xmlns="http://www.w3.org/2000/svg">
<path fill-rule="evenodd" clip-rule="evenodd" d="M61.7805 0.4552C52.862 0.4552 45.6319 7.68341 45.6319 16.5996C45.6319 25.5159 52.862 32.7441 61.7805 32.7441C70.6991 32.7441 77.9292 25.5159 77.9292 16.5996C77.9725 7.68341 70.7424 0.4552 61.7805 0.4552ZM61.7805 26.8576C56.109 26.8576 51.5199 22.2697 51.5199 16.5996C51.5199 10.9296 56.109 6.34164 61.7805 6.34164C67.452 6.34164 72.0412 10.9296 72.0412 16.5996C72.0412 22.2697 67.452 26.8576 61.7805 26.8576ZM103.04 6.34164H97.5847V29.7143C97.5847 31.359 96.2859 32.6575 94.6407 32.6575C92.9955 32.6575 91.6967 31.359 91.6967 29.7143V6.34164H87.4539V29.7143C87.4539 31.359 86.1551 32.6575 84.5099 32.6575C82.8647 32.6575 81.5659 31.359 81.5659 29.7143V6.34164H76.6737C75.0285 6.34164 73.7297 5.04316 73.7297 3.39842C73.7297 1.75368 75.0285 0.4552 76.6737 0.4552H102.996C104.642 0.4552 105.94 1.75368 105.94 3.39842C105.984 4.99988 104.642 6.34164 103.04 6.34164ZM144.299 3.39842V29.7143C144.299 31.359 143 32.6575 141.355 32.6575C139.71 32.6575 138.411 31.359 138.411 29.7143V12.6176V12.834L125.769 30.9695C124.86 32.3112 123.128 32.7441 122.176 32.7874C114.036 32.7874 107.326 26.7711 106.2 18.9802V29.7143C106.2 31.359 104.901 32.6575 103.256 32.6575C101.611 32.6575 100.312 31.359 100.312 29.7143V11.6654C100.312 10.0207 101.611 8.72219 103.256 8.72219C104.901 8.72219 106.2 10.0207 106.2 11.6654V14.2624C107.326 6.42821 114.036 0.4552 122.176 0.4552C125.033 0.4552 127.761 1.23429 130.098 2.53277C130.878 3.05216 131.441 3.9611 131.441 4.99988C131.441 6.64462 130.142 7.9431 128.497 7.9431C127.934 7.9431 127.458 7.81325 127.025 7.55356C125.596 6.77447 123.994 6.38492 122.219 6.38492C116.547 6.38492 111.958 10.9729 111.958 16.6429C111.958 22.01 116.115 26.4248 121.396 26.8576L138.671 2.27307C139.147 1.23429 140.143 0.498482 141.355 0.498482C143 0.4552 144.299 1.75368 144.299 3.39842ZM48.6624 27.8531C49.7015 29.1083 49.485 30.9695 48.2295 32.0083C46.974 33.047 45.1123 32.8306 44.0733 31.5754L35.5877 21.0578L27.102 31.5754C26.063 32.8306 24.2446 33.047 22.9458 32.0083C21.6903 30.9695 21.4738 29.1516 22.5129 27.8531L31.8211 16.3832L28.0545 11.752V14.4355C28.0545 20.019 23.5519 24.5204 17.967 24.5204C12.3821 24.5204 7.87951 20.019 7.87951 14.4355V3.39842C7.87951 1.75368 9.17833 0.4552 10.8235 0.4552C12.4687 0.4552 13.7675 1.75368 13.7675 3.39842V14.4355C13.7675 16.7728 15.6291 18.6339 17.967 18.6339C20.3049 18.6339 22.1665 16.7295 22.1665 14.4355V3.39842C22.1665 1.75368 23.4653 0.4552 25.1105 0.4552C26.1496 0.4552 27.0587 1.01787 27.5783 1.84024L35.5877 11.7087L43.7702 1.62383C44.8093 0.368633 46.6276 0.15222 47.9265 1.191C49.182 2.22979 49.3984 4.04766 48.3594 5.34614L39.3975 16.4265L48.6624 27.8531ZM20.911 29.6277C20.911 31.2725 19.6122 32.5709 17.967 32.5709H3.5934C3.37693 32.6142 3.16046 32.6575 2.94399 32.6575C1.29882 32.6575 0 31.359 0 29.7143V3.39842C0 1.75368 1.29882 0.4552 2.94399 0.4552C4.58916 0.4552 5.88798 1.75368 5.88798 3.39842V26.6845H17.967C19.6122 26.6845 20.911 27.983 20.911 29.6277Z" fill="#A7A7A7"/>
</svg>
