<svg width="229" height="39" viewBox="0 0 229 39" fill="none" xmlns="http://www.w3.org/2000/svg">
<path d="M50.5912 15.4251V34.8685C50.5912 36.3299 49.2565 37.4101 47.9854 37.4101H41.2483C39.9136 37.4101 38.8332 36.3299 38.8332 34.8685V15.6157C38.2612 12.1845 36.2273 11.422 33.8122 11.6127C33.0495 9.45229 32.2868 7.60963 31.0157 5.8305C28.4099 3.28888 28.7912 4.17844 28.0285 3.28888C28.2192 3.28888 29.5539 2.20869 31.397 1.63682C32.8588 1.25558 35.6553 1.06495 37.562 1.25558C42.583 1.95452 44.2991 3.22533 45.7609 4.36905L47.2862 5.8305C50.7818 9.57938 50.5912 13.9637 50.5912 15.4251ZM65.1457 2.14514H58.5993C57.074 2.14514 55.9935 3.22533 55.9935 4.68676V34.8049C55.9935 36.2664 57.1375 37.3465 58.5993 37.3465H65.1457C66.671 37.3465 67.7515 36.2664 67.7515 34.8049V4.68676C67.7515 3.22533 66.6075 2.14514 65.1457 2.14514ZM102.39 2.14514H95.6529C94.1276 2.14514 93.0471 3.22533 93.0471 4.68676V25.4009C93.0471 27.7519 90.4413 28.1332 90.4413 28.1332V38.2997H94.0004C95.4622 38.109 97.7503 37.7278 99.5934 36.457C101.055 35.3768 102.581 33.7248 103.725 31.8821C104.487 30.6113 104.678 29.5311 104.869 28.0697V4.62321C104.805 3.22532 103.725 2.14514 102.39 2.14514ZM85.1025 25.7822V22.8593L84.9118 5.068C84.9118 3.60657 83.7678 2.52639 82.4967 2.52639H75.7597C74.2979 2.52639 73.1538 3.60657 73.1538 5.068V28.5144C73.3445 29.9759 73.5352 31.056 74.425 32.3269C75.569 33.9789 76.8401 35.758 78.5562 36.7111C80.3993 37.982 82.4967 38.5538 83.9585 38.5538H87.5177V28.3874C87.5177 28.3238 85.1025 27.9426 85.1025 25.7822ZM16.0799 1.25558H15.3172C6.92769 1.25558 0.190672 7.99086 0.190672 15.8063L0 34.8685C0 36.3299 1.14403 37.4101 2.60583 37.4101H8.77083C10.2326 37.4101 11.3767 36.3299 11.3767 34.8685V15.6157C11.758 14.1543 13.9825 12.3116 15.8256 12.3116C17.4781 12.3116 19.5755 14.1543 20.1475 15.6157V34.6779C20.1475 36.1393 21.2915 37.2195 22.5626 37.2195H28.9183C30.253 37.2195 31.3335 36.1393 31.3335 34.6779L31.5242 16.124C31.5877 8.11794 24.66 1.25558 16.0799 1.25558ZM170.459 5.44925L169.125 3.98781C167.663 2.90762 165.947 1.63683 160.735 0.74726C159.083 0.556639 156.286 0.937878 154.761 1.31912C152.918 1.89098 151.392 2.97118 151.202 2.97118C152.155 3.86074 151.583 2.97118 154.189 5.51279C155.65 7.35547 156.413 9.13459 156.985 11.295C159.591 11.1043 161.434 11.8668 162.006 15.298V34.5508C162.006 36.0122 163.277 37.0924 164.612 37.0924H171.349C172.684 37.0924 173.764 36.0122 173.764 34.5508L173.955 15.1074C174.018 13.5824 174.146 9.26168 170.459 5.44925ZM188.509 1.82744H181.772C180.438 1.82744 179.357 2.90762 179.357 4.36905V34.4872C179.357 35.9487 180.501 37.0288 181.772 37.0288H188.509C189.844 37.0288 190.924 35.9487 190.924 34.4872V4.36905C190.924 2.90762 189.844 1.82744 188.509 1.82744ZM225.626 1.82744H218.889C217.618 1.82744 216.474 2.90762 216.474 4.36905V22.351C216.474 22.5416 216.474 23.4312 216.284 25.0832C216.284 27.4342 213.868 27.8155 213.868 27.8155V37.982H217.428C218.889 37.7913 220.987 37.283 222.83 36.1393C224.482 35.0591 226.008 33.407 227.088 31.6279C227.851 30.3571 228.042 29.2769 228.232 27.8155V4.36905C228.232 2.90762 227.088 1.82744 225.626 1.82744ZM208.275 25.4009V4.49614C208.275 3.22533 207.131 2.14514 205.67 2.14514H199.123C197.598 2.14514 196.517 3.22533 196.517 4.49614V28.1332C196.708 29.5946 196.899 30.6748 197.662 31.755C198.806 33.5977 200.267 35.3768 201.92 36.2664C203.763 37.5372 205.86 38.109 207.322 38.109H210.881V27.9426C210.881 27.9426 208.466 27.5613 208.275 25.4009ZM139.507 0.683716L138.744 0.874329C130.164 0.874329 123.491 7.60961 123.491 15.4251V34.4872C123.491 35.9487 124.635 37.0288 126.097 37.0288H132.262C133.723 37.0288 134.867 35.9487 134.867 34.4872L134.677 15.6157L134.867 15.2345C135.249 13.773 137.473 11.9939 139.126 11.9939C140.778 11.9939 143.066 13.646 143.384 15.2345L143.575 15.4251L143.384 34.2966C143.384 35.758 144.528 36.8382 145.99 36.8382H152.155C153.68 36.8382 154.761 35.758 154.761 34.2966V15.6157C154.761 7.80025 148.087 0.683716 139.507 0.683716Z" fill="#A7A7A7"/>
</svg>
