<svg width="17" height="21" viewBox="0 0 17 21" fill="none" xmlns="http://www.w3.org/2000/svg">
<path d="M7.31018 14.0744C6.78144 16.8433 6.13776 19.4984 4.2276 20.8849C3.6393 16.7001 5.09386 13.5564 5.76889 10.2197C4.61737 8.2797 5.90787 4.37422 8.33631 5.33611C11.3248 6.52045 5.74799 12.5498 9.49202 13.3035C13.4011 14.0897 14.9978 6.51538 12.5735 4.05121C9.0709 0.495144 2.37806 3.97097 3.20147 9.06283C3.4021 10.3081 4.68633 10.686 3.71454 12.4046C1.47314 11.9059 0.804379 10.1365 0.891109 7.77691C1.02904 3.91714 4.35718 1.21327 7.69472 0.839477C11.9163 0.366146 15.8776 2.3905 16.4242 6.36505C17.0407 10.8505 14.5192 15.7098 10.0061 15.3593C8.7825 15.2649 8.26839 14.6585 7.31018 14.0744V14.0744Z" fill="black"/>
</svg>
