<svg width="66" height="29" viewBox="0 0 66 29" fill="none" xmlns="http://www.w3.org/2000/svg">
<path fill-rule="evenodd" clip-rule="evenodd" d="M58.3315 26.9553C57.6004 27.7841 56.1163 27.6598 55.8725 26.4479C55.7561 25.8469 55.9254 25.1219 56.1905 24.6143C56.7841 23.5059 57.8546 22.5944 59.0736 22.294C59.0736 22.9777 59.0736 23.8789 59.0524 24.5729C59.031 25.3395 58.8616 26.3441 58.3315 26.9553ZM46.5349 10.5785C47.2133 10.6199 47.7539 11.3449 47.5737 12.5776C47.3511 14.0383 46.1109 15.6023 44.7014 15.9545C44.4786 15.4366 44.3728 14.38 44.4998 13.3442C44.7331 11.4485 45.7294 10.537 46.5349 10.5785V10.5785ZM20.1117 17.6429C19.0624 16.2756 19.1047 14.6183 19.4335 13.0438C20.4614 15.3019 23.2067 15.6956 24.9025 15.3641C24.68 17.1043 23.7469 18.627 22.1362 18.627C21.2352 18.6374 20.5779 18.2541 20.1117 17.6429ZM23.8214 11.262C24.3385 11.778 24.6874 12.5302 24.8471 13.3651C24.8481 13.365 24.8495 13.3752 24.8495 13.3752C24.8489 13.3718 24.8479 13.3685 24.8471 13.3651C23.6609 13.5303 22.5171 13.3128 21.6804 12.6811C21.0763 12.215 20.9172 11.4796 21.1716 11.0342C21.5424 10.392 22.6555 10.1123 23.8214 11.262ZM7.66859 2.76801C8.39973 1.92911 9.88366 2.06357 10.1169 3.27564C10.2333 3.86602 10.0744 4.59111 9.80959 5.09865C9.21576 6.20697 8.14531 7.11848 6.92636 7.42928C6.92636 6.73542 6.91572 5.84447 6.94783 5.15052C6.96885 4.38397 7.13855 3.3688 7.66859 2.76801V2.76801ZM61.7763 20.7298C61.7868 17.1251 61.7763 13.5203 61.7763 9.91545C61.7763 9.02468 59.1584 8.97272 59.0736 9.87407C59.0736 10.2366 59.0736 10.6095 59.0629 10.972C59.0207 12.9505 58.0562 16.6485 56.4557 17.9951C56.0211 18.3578 55.6288 18.3784 55.3534 18.1815C55.1095 18.0054 55.0458 17.5602 55.0458 17.1769V16.6796C55.0458 14.4526 55.0565 12.1529 55.0458 9.92577C55.0458 9.03491 52.4279 8.97272 52.3431 9.87407C52.3431 11.9457 52.3431 13.9554 52.3538 16.0063C50.6261 18.6996 46.6303 19.9633 44.9769 16.7728C46.005 17.1561 47.0966 16.9696 47.8386 16.5864C49.1212 15.9234 50.0962 14.8255 50.2869 13.0852C50.4671 7.98869 43.5779 7.29483 42.0409 12.4845C41.7866 13.3442 41.6489 14.2661 41.6807 15.1673C41.7123 16.027 41.8926 16.8246 42.1999 17.529C41.638 18.0676 40.9916 18.4405 40.3452 18.4199C39.4971 18.3888 39.5821 17.3634 39.5821 16.7728V12.8883C39.5821 12.4223 39.5821 11.9561 39.5395 11.5004C39.402 10.1434 38.3419 9.06605 36.8581 8.97272C34.7487 8.94175 33.265 10.8581 32.5337 12.9609C32.5232 11.7904 32.5337 11.0963 32.5337 9.91545C32.5232 9.03491 30.096 8.97272 29.8204 9.90504C29.4706 11.086 28.3258 12.0079 27.2553 12.5568C26.9269 11.78 26.5136 11.0653 25.9412 10.4542C23.5881 7.95764 20.186 8.41357 18.1931 10.4748C16.6139 12.1115 16.1372 15.0637 16.985 17.1353C16.3597 17.8606 15.5012 18.451 14.7381 18.4199C14.3564 18.3992 14.1444 18.1815 14.049 17.8398C13.9535 17.5082 13.9749 17.1148 13.9749 16.7728C13.9749 15.478 13.9642 14.1832 13.9749 12.8883C13.9749 12.4223 13.9749 11.9561 13.9326 11.5004C13.7947 10.1434 12.9785 9.05564 11.4312 8.96257C8.77071 8.84841 7.70026 11.3657 6.91571 13.4373V9.01427C7.4776 8.92102 8.01828 8.7863 8.55861 8.63103C14.42 6.98394 13.2858 0.965562 8.91921 0.862077C5.97265 0.799969 4.22366 2.6955 4.24504 5.57513V7.43969C3.18506 7.28442 2.39004 5.93781 1.94508 5.06768C1.8813 4.93297 1.81769 4.79825 1.75427 4.66354C1.70131 4.52891 1.5529 4.45657 1.41486 4.49795C1.29848 4.52891 1.18192 4.57046 1.06517 4.61184C0.641413 4.79834 0.291364 5.11947 0.12202 5.54416C-0.185267 6.30031 0.12202 7.10833 0.662346 7.67798C1.5529 8.58957 2.97322 8.92102 4.22366 8.98313C4.21302 12.5776 4.22366 16.1617 4.22366 19.7561C4.26606 20.2637 4.97636 20.3984 5.38965 20.4087C5.82433 20.4191 6.76748 20.2844 6.77822 19.7044L6.80998 19.2589C6.99014 17.6638 8.55861 11.2828 10.5406 11.2724C11.0284 11.2724 11.2722 11.5832 11.2722 12.0493V17.7363C11.2722 19.4972 12.2896 20.678 14.1339 20.678C15.5648 20.6884 16.8576 19.6732 17.6314 18.4096C17.7373 18.5442 17.8222 18.6892 17.9388 18.8135C18.9456 19.9633 20.4296 20.6988 22.1255 20.7092C25.8243 20.6573 27.7215 17.5498 27.584 14.494C28.4425 14.0279 29.2163 13.4269 29.8096 12.6811V19.7561C29.8521 20.2637 30.5941 20.3984 31.0076 20.4087C31.4419 20.4191 32.3854 20.2844 32.3854 19.7044L32.4277 19.2589L32.5548 18.078C32.7458 16.431 34.007 11.2828 36.1586 11.2724C36.6353 11.2724 36.8794 11.5832 36.8794 12.0493V17.7363C36.8794 19.4972 37.8969 20.678 39.7515 20.678C41.0341 20.6884 42.1999 19.8701 42.9843 18.7928C44.0229 20.0462 45.613 20.7816 47.5205 20.7816C49.7572 20.7816 51.3786 19.8183 52.4598 18.2645C52.7035 19.6008 53.4349 20.6573 55.2262 20.678C57.0808 20.6884 58.4906 18.161 59.0736 16.6381V20.7092C58.5222 20.8023 57.9819 20.937 57.4415 21.0923C51.5801 22.7291 52.7035 28.7577 57.0703 28.851C60.0274 28.9235 61.7656 27.0278 61.7551 24.1482C61.7551 23.6614 61.7445 22.7498 61.7551 22.2732C62.8044 22.4287 63.6099 23.7857 64.0445 24.6558C64.1186 24.7905 64.1823 24.925 64.2354 25.0597C64.2989 25.1944 64.4365 25.2565 64.585 25.2254C64.7016 25.1944 64.8182 25.1531 64.9241 25.1011C65.3588 24.9148 65.7086 24.604 65.8782 24.1689C66.1855 23.4128 65.8782 22.6152 65.3269 22.0454C64.4474 21.1235 63.0162 20.8023 61.7763 20.7298V20.7298Z" fill="black"/>
</svg>
