<svg width="93" height="41" viewBox="0 0 93 41" fill="none" xmlns="http://www.w3.org/2000/svg">
<path fill-rule="evenodd" clip-rule="evenodd" d="M81.507 38.2708C80.4854 39.4547 78.4116 39.2771 78.071 37.5458C77.9084 36.6873 78.145 35.6516 78.5154 34.9264C79.3448 33.3429 80.8406 32.0407 82.544 31.6116C82.544 32.5884 82.544 33.8758 82.5144 34.8673C82.4844 35.9623 82.2478 37.3976 81.507 38.2708ZM65.0235 14.8751C65.9715 14.9342 66.7269 15.9699 66.475 17.731C66.164 19.8177 64.4311 22.052 62.4615 22.5551C62.1503 21.8153 62.0024 20.3058 62.1799 18.826C62.5059 16.1179 63.898 14.8157 65.0235 14.8751V14.8751ZM28.1023 24.9672C26.636 23.0138 26.6951 20.6462 27.1545 18.3969C28.5909 21.6228 32.4269 22.1853 34.7964 21.7117C34.4855 24.1978 33.1818 26.3731 30.931 26.3731C29.6721 26.3878 28.7536 25.8404 28.1023 24.9672ZM33.2858 15.8514C34.0084 16.5886 34.4959 17.6632 34.719 18.8559C34.7204 18.8558 34.7224 18.8704 34.7224 18.8704C34.7215 18.8655 34.7201 18.8608 34.719 18.8559C33.0615 19.092 31.4633 18.7812 30.2941 17.8788C29.4501 17.213 29.2278 16.1624 29.5833 15.526C30.1014 14.6086 31.6568 14.209 33.2858 15.8514ZM10.7154 3.7171C11.737 2.51866 13.8105 2.71073 14.1364 4.44228C14.2991 5.28569 14.077 6.32155 13.707 7.04661C12.8773 8.62995 11.3815 9.93211 9.67825 10.3761C9.67825 9.38488 9.66338 8.11208 9.70825 7.12071C9.73763 6.02562 9.97475 4.57537 10.7154 3.7171V3.7171ZM86.3205 29.3771C86.3351 24.2274 86.3205 19.0776 86.3205 13.9278C86.3205 12.6553 82.6624 12.581 82.544 13.8687C82.544 14.3866 82.544 14.9193 82.529 15.4372C82.47 18.2637 81.1223 23.5466 78.8859 25.4703C78.2786 25.9884 77.7305 26.0179 77.3458 25.7366C77.0049 25.4851 76.9159 24.849 76.9159 24.3014V23.5911C76.9159 20.4095 76.9309 17.1242 76.9159 13.9426C76.9159 12.6699 73.2579 12.581 73.1394 13.8687C73.1394 16.8282 73.1394 19.6992 73.1544 22.6292C70.7401 26.4767 65.1569 28.2821 62.8465 23.7242C64.2831 24.2718 65.8084 24.0053 66.8453 23.4578C68.6374 22.5107 69.9998 20.9423 70.2663 18.4561C70.518 11.1753 60.8918 10.184 58.744 17.5979C58.3888 18.826 58.1963 20.1431 58.2408 21.4305C58.2849 22.6587 58.5368 23.7981 58.9663 24.8045C58.1811 25.5739 57.2779 26.1067 56.3746 26.0772C55.1895 26.0327 55.3084 24.5678 55.3084 23.7242V18.1748C55.3084 17.509 55.3084 16.8431 55.2489 16.1921C55.0566 14.2535 53.5754 12.7144 51.5021 12.581C48.5546 12.5368 46.4814 15.2745 45.4595 18.2786C45.4449 16.6064 45.4595 15.6148 45.4595 13.9278C45.4449 12.6699 42.0534 12.581 41.6683 13.913C41.1795 15.6 39.5799 16.917 38.084 17.7012C37.6251 16.5915 37.0476 15.5705 36.2479 14.6975C32.9598 11.1309 28.206 11.7823 25.4214 14.7269C23.2148 17.0651 22.5486 21.2825 23.7333 24.242C22.8595 25.2781 21.66 26.1215 20.5936 26.0772C20.0603 26.0475 19.7641 25.7366 19.6308 25.2484C19.4974 24.7748 19.5273 24.2127 19.5273 23.7242C19.5273 21.8744 19.5123 20.0246 19.5273 18.1748C19.5273 17.509 19.5273 16.8431 19.4681 16.1921C19.2754 14.2535 18.135 12.6995 15.9729 12.5665C12.2554 12.4035 10.7596 15.9997 9.66338 18.9591V12.6404C10.4485 12.5072 11.204 12.3147 11.959 12.0929C20.1491 9.73991 18.5644 1.14214 12.4629 0.994304C8.34563 0.905577 5.90175 3.6135 5.93163 7.72731V10.391C4.4505 10.1692 3.33963 8.24542 2.71788 7.00237C2.62875 6.80992 2.53988 6.61747 2.45125 6.42502C2.37725 6.23269 2.16988 6.12935 1.977 6.18846C1.81438 6.23269 1.6515 6.29205 1.48838 6.35116C0.89625 6.61759 0.407125 7.07635 0.1705 7.68307C-0.258875 8.76329 0.1705 9.91761 0.9255 10.7314C2.16988 12.0337 4.1545 12.5072 5.90175 12.5959C5.88688 17.731 5.90175 22.8511 5.90175 27.986C5.961 28.7112 6.9535 28.9037 7.531 28.9183C8.13838 28.9332 9.45625 28.7407 9.47125 27.9122L9.51563 27.2757C9.76738 24.9969 11.959 15.8812 14.7285 15.8663C15.41 15.8663 15.7508 16.3103 15.7508 16.9763V25.1005C15.7508 27.6161 17.1724 29.3031 19.7494 29.3031C21.7488 29.318 23.5553 27.8676 24.6365 26.0624C24.7845 26.2547 24.9031 26.4618 25.066 26.6394C26.4729 28.2821 28.5464 29.3328 30.9161 29.3476C36.0845 29.2735 38.7355 24.8341 38.5434 20.4686C39.7429 19.8028 40.8241 18.9443 41.6531 17.8788V27.986C41.7125 28.7112 42.7494 28.9037 43.3271 28.9183C43.934 28.9332 45.2524 28.7407 45.2524 27.9122L45.3115 27.2757L45.489 25.5888C45.7559 23.2359 47.5183 15.8812 50.5246 15.8663C51.1908 15.8663 51.5319 16.3103 51.5319 16.9763V25.1005C51.5319 27.6161 52.9536 29.3031 55.545 29.3031C57.3373 29.318 58.9663 28.1489 60.0623 26.6099C61.5135 28.4004 63.7354 29.451 66.4008 29.451C69.526 29.451 71.7916 28.0749 73.3024 25.8551C73.643 27.7642 74.6649 29.2735 77.168 29.3031C79.7594 29.318 81.7294 25.7073 82.544 23.5317V29.3476C81.7735 29.4807 81.0185 29.6731 80.2634 29.8949C72.0733 32.2332 73.643 40.8456 79.7448 40.9789C83.8768 41.0825 86.3055 38.3743 86.2909 34.2605C86.2909 33.5651 86.276 32.2628 86.2909 31.582C87.757 31.8041 88.8825 33.7427 89.4899 34.9857C89.5934 35.1781 89.6824 35.3703 89.7565 35.5627C89.8453 35.7552 90.0376 35.8439 90.2451 35.7994C90.408 35.7552 90.5709 35.696 90.7189 35.6218C91.3263 35.3556 91.8151 34.9117 92.052 34.2902C92.4815 33.2099 92.052 32.0705 91.2818 31.2564C90.0528 29.9395 88.053 29.4807 86.3205 29.3771V29.3771Z" fill="#FFA638"/>
</svg>
