<svg width="140" height="42" viewBox="0 0 140 42" fill="none" xmlns="http://www.w3.org/2000/svg">
<path d="M134.017 41.3504H5.25168C2.41888 41.3504 0.101074 39.0803 0.101074 36.3058V6.03784C0.101074 3.26325 2.41883 0.993164 5.25168 0.993164H134.017C136.849 0.993164 139.167 3.26325 139.167 6.03784V36.3057C139.167 39.0803 136.849 41.3504 134.017 41.3504" fill="black"/>
<path d="M134.017 0.993164H5.25168C2.41888 0.993164 0.101074 3.26325 0.101074 6.03784V36.3057C0.101074 39.0803 2.41883 41.3504 5.25168 41.3504H134.017C136.849 41.3504 139.167 39.0803 139.167 36.3058V6.03784C139.167 3.26325 136.85 0.993164 134.017 0.993164H134.017ZM134.017 1.80028C136.402 1.80028 138.343 3.70155 138.343 6.03784V36.3057C138.343 38.6425 136.402 40.5437 134.017 40.5437H5.25168C2.86636 40.5437 0.925179 38.6424 0.925179 36.3058V6.03784C0.925179 3.70155 2.86631 1.80033 5.25168 1.80033H134.017" fill="#A6A6A6"/>
<path d="M48.9476 11.3283C48.9476 12.1736 48.692 12.8468 48.1802 13.3489C47.5988 13.946 46.841 14.2448 45.9095 14.2448C45.0174 14.2448 44.2589 13.9421 43.6352 13.3359C43.0103 12.7301 42.6985 11.979 42.6985 11.0827C42.6985 10.1861 43.0103 9.43537 43.6352 8.82912C44.2589 8.22341 45.0174 7.92029 45.9095 7.92029C46.3521 7.92029 46.7759 8.00508 47.1783 8.17417C47.5806 8.34367 47.9034 8.56866 48.1448 8.85043L47.6015 9.38286C47.1924 8.90403 46.629 8.66479 45.9095 8.66479C45.2589 8.66479 44.6963 8.8887 44.2215 9.3368C43.7466 9.78534 43.5093 10.367 43.5093 11.0827C43.5093 11.7985 43.7466 12.3801 44.2215 12.8287C44.6963 13.2768 45.2588 13.5007 45.9095 13.5007C46.5997 13.5007 47.1751 13.2756 47.6358 12.8248C47.9348 12.5311 48.1077 12.1228 48.154 11.5986H45.9094V10.8715H48.9045C48.9334 11.0296 48.9475 11.1813 48.9475 11.3283" fill="white"/>
<path d="M48.9477 11.3284H48.8447C48.8438 12.1544 48.5975 12.796 48.1074 13.2776L48.1063 13.2784L48.1058 13.2793C47.5429 13.8558 46.8193 14.1427 45.9095 14.1439C45.0412 14.1427 44.3145 13.8526 43.7076 13.2646C43.1021 12.6754 42.8027 11.9561 42.8015 11.0828C42.8027 10.2091 43.1021 9.49017 43.7076 8.90137C44.3145 8.31294 45.0412 8.02247 45.9095 8.02124C46.3389 8.02124 46.7477 8.10331 47.1376 8.26682C47.5279 8.43161 47.8362 8.64753 48.066 8.91561L48.1448 8.85049L48.072 8.77917L47.5287 9.31196L47.6015 9.38293L47.6809 9.31836C47.2527 8.81581 46.6516 8.56247 45.9095 8.56396C45.2348 8.56315 44.6412 8.7993 44.1503 9.2644C43.6546 9.73099 43.4055 10.3454 43.4063 11.0828C43.4055 11.8202 43.6546 12.4346 44.1503 12.9012C44.6412 13.3663 45.2348 13.6024 45.9095 13.6016C46.6225 13.6028 47.2302 13.3659 47.7086 12.8961C48.0281 12.5824 48.2092 12.1477 48.2567 11.6073L48.2663 11.4978H46.0125V10.9724H48.9046V10.8715L48.8031 10.8893C48.8313 11.0423 48.8446 11.1876 48.8446 11.3284H49.0506C49.0506 11.175 49.0361 11.0174 49.0059 10.8535L48.9907 10.7706H45.8065V11.6996H48.1541V11.5987L48.0515 11.59C48.006 12.0977 47.841 12.48 47.563 12.7535C47.1204 13.1854 46.5771 13.3986 45.9095 13.3998C45.2831 13.399 44.7515 13.1878 44.2932 12.7562C43.8393 12.3262 43.6135 11.7772 43.6124 11.0828C43.6135 10.3883 43.8393 9.83936 44.2932 9.40936C44.7515 8.97782 45.283 8.76656 45.9095 8.76575C46.6061 8.76738 47.1321 8.99278 47.5228 9.448L47.5952 9.53234L48.2177 8.92187L48.2845 8.85648L48.2237 8.78583C47.9706 8.49033 47.6334 8.25576 47.2189 8.08164C46.8037 7.90697 46.3655 7.81946 45.9095 7.81946C44.9937 7.81869 44.2034 8.13397 43.5624 8.7579C42.919 9.38061 42.5947 10.1633 42.5956 11.0828C42.5947 12.0018 42.919 12.785 43.5628 13.4081C44.2034 14.0316 44.9937 14.3465 45.9095 14.3457C46.8632 14.3465 47.6544 14.0363 48.2547 13.4187L48.1802 13.349L48.2531 13.4203C48.7867 12.8981 49.0514 12.1926 49.0507 11.3284H48.9477H48.9477ZM53.6958 8.79966H50.8811V10.7191H53.4194V11.4465H50.8811V13.3659H53.6958V14.1096H50.0876V8.05597H53.6958V8.79966" fill="white"/>
<path d="M53.6955 8.79997V8.69908H50.7778V10.8201H53.3161V11.3455L50.7777 11.3457V13.4668H53.5924V14.0087H50.1903V8.15721H53.5924V8.79997H53.6955V8.69908V8.79997H53.7985V7.95544H49.9843V14.2104H53.7985V13.265H50.9837V11.5475H53.5221V10.6184H50.9837V8.90085H53.7985V8.79997H53.6955V8.79997ZM57.0446 14.1096H56.2499V8.79992H54.5236V8.05628H58.7709V8.79992H57.0446V14.1095" fill="white"/>
<path d="M57.0449 14.1096V14.0087H56.3531V8.69909H54.6269V8.15726H58.6681V8.69909H56.9419V14.1096H57.0449V14.0087V14.1096H57.1479V8.90086H58.8741V7.95544H54.4209V8.90081H56.1471V14.2104H57.1479V14.1095H57.0449V14.1096ZM61.8441 14.1096V8.05628H62.6381V14.1095H61.8441" fill="white"/>
<path d="M61.8443 14.1096H61.9474V8.15721H62.5352V14.0087H61.8443V14.1095H61.9474H61.8443V14.2104H62.7412V7.95544H61.7413V14.2104H61.8443V14.1095V14.1096ZM66.1611 14.1096H65.3664V8.79992H63.6402V8.05628H67.8875V8.79992H66.1611V14.1095" fill="white"/>
<path d="M66.161 14.1096V14.0087H65.4693V8.69871H63.7431V8.15685H67.7843V8.69871H66.058V14.1095H66.161V14.0087V14.1095H66.2641V8.90049H67.9903V7.95502H63.5371V8.90045H65.2633V14.2104H66.2641V14.1095H66.161V14.1096ZM71.9821 12.8205C72.4395 13.274 72.9993 13.5006 73.6613 13.5006C74.3232 13.5006 74.8833 13.274 75.34 12.8205C75.7979 12.3668 76.0273 11.787 76.0273 11.0827C76.0273 10.3785 75.7979 9.79867 75.34 9.34505C74.8833 8.89142 74.3232 8.66479 73.6613 8.66479C72.9993 8.66479 72.4395 8.89142 71.9821 9.34505C71.5253 9.79867 71.296 10.3785 71.296 11.0827C71.296 11.787 71.5253 12.3668 71.9821 12.8205ZM75.9275 13.3272C75.3199 13.9392 74.5642 14.2448 73.6613 14.2448C72.7574 14.2448 72.0021 13.9392 71.3958 13.3272C70.7877 12.7159 70.4852 11.9676 70.4852 11.0827C70.4852 10.1979 70.7877 9.44943 71.3958 8.83824C72.0021 8.22609 72.7574 7.92029 73.6613 7.92029C74.5594 7.92029 75.313 8.22772 75.9235 8.84218C76.5331 9.45659 76.8381 10.2034 76.8381 11.0827C76.8381 11.9676 76.5338 12.7159 75.9275 13.3272Z" fill="white"/>
<path d="M71.9821 12.8205L71.9088 12.8914C72.3833 13.3632 72.9752 13.6028 73.6613 13.6016C74.3469 13.6028 74.9396 13.3632 75.4133 12.8914C75.8909 12.4192 76.1311 11.8083 76.1303 11.0828C76.131 10.3573 75.8909 9.74636 75.4133 9.27415C74.9396 8.80239 74.3469 8.56279 73.6613 8.56397C72.9752 8.56279 72.3833 8.80239 71.9088 9.27415C71.4324 9.74636 71.1917 10.3573 71.193 11.0828C71.1917 11.8083 71.4324 12.4192 71.9088 12.8914L71.9821 12.8205L72.0554 12.7496C71.6184 12.314 71.3999 11.7662 71.399 11.0828C71.3999 10.3995 71.6184 9.8516 72.0553 9.41603C72.4963 8.98059 73.023 8.76697 73.6613 8.76579C74.299 8.76697 74.827 8.98059 75.2668 9.41603C75.7046 9.8516 75.9231 10.3995 75.9239 11.0828C75.9231 11.7661 75.7046 12.314 75.2668 12.7496C74.827 13.185 74.2991 13.3986 73.6613 13.3998C73.023 13.3986 72.4963 13.185 72.0553 12.7496L71.9821 12.8205ZM75.9275 13.3273L75.8539 13.2572C75.2632 13.8499 74.5409 14.1427 73.6613 14.1439C72.7813 14.1427 72.0589 13.8499 71.4694 13.2572L71.4666 13.254L71.4694 13.2572C70.8799 12.6624 70.5891 11.9451 70.5882 11.0828C70.5891 10.2204 70.8799 9.50318 71.4694 8.90845C72.0589 8.31566 72.7812 8.02247 73.6613 8.02129C74.5352 8.02247 75.2559 8.31689 75.8498 8.91275C76.4414 9.51025 76.7339 10.2264 76.7352 11.0828C76.7339 11.9451 76.4422 12.6624 75.8539 13.2572L75.9275 13.3273L76.0016 13.3974C76.6261 12.7692 76.9419 11.99 76.9412 11.0828C76.9419 10.1807 76.6248 9.40311 75.9975 8.77214C75.3698 8.13868 74.5836 7.81837 73.6613 7.81946C72.7342 7.81837 71.9455 8.13719 71.3218 8.7682V8.76774C70.6961 9.39635 70.3814 10.1755 70.3822 11.0828C70.3814 11.99 70.6961 12.7692 71.3218 13.3978L71.3246 13.4006L71.3218 13.3974C71.9455 14.0284 72.7342 14.3465 73.6613 14.3457C74.588 14.3465 75.3766 14.0284 76.0016 13.3974L75.9275 13.3273V13.3273ZM77.9527 14.1096V8.05593H78.9193L81.9231 12.7652H81.9574L81.9231 11.5986V8.05593H82.7179V14.1096H81.8889L78.7463 9.17203H78.712L78.7463 10.3391V14.1096H77.9528" fill="white"/>
<path d="M77.9527 14.1099H78.0557V8.15722H78.8621L81.8659 12.8664H82.0631L82.0261 11.5975V8.15727H82.6148V14.009H81.946L78.8034 9.07152H78.6062L78.6432 10.341V14.009H77.9527V14.1098H78.0557H77.9527V14.2107H78.8492V10.3378L78.815 9.16969L78.712 9.17241V9.2733H78.7462V9.17241L78.6588 9.22605L81.8317 14.2107H82.8208V7.95544H81.8201V11.6001L81.8543 12.7683L81.9573 12.7655V12.6647H81.9231V12.7655L82.0104 12.712L78.9763 7.95544H77.8497V14.2107H77.9527V14.1098L77.9527 14.1099ZM110.258 31.2615H112.18V18.6488H110.258L110.258 31.2615ZM127.571 23.1922L125.368 28.6604H125.302L123.015 23.1921H120.944L124.374 30.835L122.418 35.0863H124.424L129.709 23.1921L127.571 23.1922ZM116.67 29.8289C116.04 29.8289 115.162 29.5207 115.162 28.7578C115.162 27.7842 116.256 27.4111 117.2 27.4111C118.046 27.4111 118.442 27.5895 118.956 27.8332C118.807 29.0013 117.78 29.8289 116.67 29.8289V29.8289ZM116.902 22.9162C115.51 22.9162 114.069 23.5168 113.473 24.8474L115.179 25.545C115.543 24.8474 116.222 24.62 116.935 24.62C117.929 24.62 118.94 25.2044 118.956 26.2429V26.3726C118.608 26.1779 117.863 25.8859 116.952 25.8859C115.113 25.8859 113.24 26.8754 113.24 28.7254C113.24 30.413 114.748 31.5003 116.438 31.5003C117.73 31.5003 118.442 30.9324 118.89 30.2672H118.956V31.2406H120.811V26.4049C120.811 24.166 119.106 22.9162 116.902 22.9162V22.9162ZM105.023 24.7275H102.289V20.4042H105.023C106.46 20.4042 107.276 21.5695 107.276 22.5658C107.276 23.5432 106.46 24.7275 105.023 24.7275ZM104.973 18.6488H100.368V31.2615H102.289V26.4829H104.973C107.104 26.4829 109.198 24.9723 109.198 22.5658C109.198 20.1595 107.104 18.6488 104.973 18.6488V18.6488ZM79.858 29.8313C78.5301 29.8313 77.4183 28.7423 77.4183 27.2467C77.4183 25.7354 78.5301 24.6298 79.858 24.6298C81.169 24.6298 82.1979 25.7353 82.1979 27.2467C82.1979 28.7423 81.169 29.8313 79.858 29.8313H79.858ZM82.0651 23.8984H81.9987C81.5674 23.3946 80.7372 22.9395 79.6918 22.9395C77.5012 22.9395 75.4933 24.8249 75.4933 27.2467C75.4933 29.6524 77.5011 31.5216 79.6918 31.5216C80.7372 31.5216 81.5674 31.0664 81.9987 30.5466H82.0651V31.1641C82.0651 32.8061 81.169 33.6837 79.7252 33.6837C78.5469 33.6837 77.8167 32.8545 77.5177 32.1557L75.8418 32.8383C76.323 33.9761 77.601 35.3741 79.7252 35.3741C81.9822 35.3741 83.8907 34.0734 83.8907 30.904V23.1996H82.0651V23.8984ZM85.2182 31.2615H87.1433V18.6483H85.2182V31.2615ZM89.9813 27.1005C89.9314 25.4424 91.2923 24.5975 92.2714 24.5975C93.0353 24.5975 93.6822 24.9711 93.8975 25.508L89.9813 27.1005ZM95.9557 25.6702C95.591 24.711 94.4785 22.9395 92.2049 22.9395C89.9479 22.9395 88.0728 24.6787 88.0728 27.2306C88.0728 29.6362 89.9314 31.5216 92.4206 31.5216C94.429 31.5216 95.591 30.3187 96.0721 29.62L94.5784 28.6445C94.0808 29.3599 93.4 29.8313 92.4206 29.8313C91.4416 29.8313 90.7447 29.3922 90.2964 28.531L96.1545 26.1578L95.9557 25.6702ZM49.2828 24.2562V26.0766H53.7303C53.5976 27.1005 53.249 27.8481 52.7179 28.3683C52.0709 29.0024 51.0585 29.7012 49.2827 29.7012C46.5444 29.7012 44.4037 27.5395 44.4037 24.8576C44.4037 22.1757 46.5444 20.0137 49.2828 20.0137C50.7599 20.0137 51.8383 20.5827 52.635 21.3141L53.946 20.0302C52.8343 18.9897 51.3571 18.1933 49.2828 18.1933C45.532 18.1933 42.3789 21.1841 42.3789 24.8576C42.3789 28.531 45.532 31.5216 49.2828 31.5216C51.3076 31.5216 52.8343 30.8718 54.029 29.6524C55.2571 28.4495 55.639 26.7592 55.639 25.394C55.639 24.9711 55.6059 24.5813 55.5391 24.2562H49.2828ZM60.6954 29.8313C59.3675 29.8313 58.2223 28.7584 58.2223 27.2306C58.2223 25.6864 59.3675 24.6298 60.6954 24.6298C62.0228 24.6298 63.168 25.6864 63.168 27.2306C63.168 28.7585 62.0228 29.8313 60.6954 29.8313ZM60.6954 22.9395C58.2721 22.9395 56.2972 24.7437 56.2972 27.2306C56.2972 29.7012 58.2721 31.5216 60.6954 31.5216C63.1181 31.5216 65.0931 29.7012 65.0931 27.2306C65.0931 24.7437 63.1181 22.9395 60.6954 22.9395ZM70.2891 29.8313C68.9617 29.8313 67.8164 28.7584 67.8164 27.2306C67.8164 25.6864 68.9617 24.6298 70.2891 24.6298C71.6166 24.6298 72.7618 25.6864 72.7618 27.2306C72.7618 28.7585 71.6166 29.8313 70.2891 29.8313H70.2891ZM70.2891 22.9395C67.866 22.9395 65.8914 24.7437 65.8914 27.2306C65.8914 29.7012 67.866 31.5216 70.2891 31.5216C72.712 31.5216 74.6869 29.7012 74.6869 27.2306C74.6869 24.7437 72.712 22.9395 70.2891 22.9395H70.2891Z" fill="white"/>
<path d="M10.9262 8.67286C10.5805 8.97834 10.3741 9.48787 10.3741 10.1642V10.0113V32.3301V32.1831C10.3741 32.8077 10.5511 33.2901 10.8509 33.6007L10.9274 33.6725V33.6728C11.17 33.8872 11.4811 34.0011 11.8377 34.0007C12.186 34.0007 12.578 33.8919 12.9917 33.6622L27.9441 25.3412L33.0802 22.4827C33.7325 22.1198 34.0987 21.6515 34.1599 21.1746V21.1727C34.0987 20.6946 33.7325 20.2268 33.0803 19.8638L27.9437 17.0056L12.9917 8.68465C12.5772 8.45453 12.1849 8.34534 11.8356 8.34534C11.4795 8.34534 11.1688 8.45883 10.9263 8.67286H10.9262Z" fill="#00C1FF"/>
<path d="M10.9274 33.6721L10.8509 33.6004C10.5511 33.2898 10.3741 32.8074 10.3741 32.1828V32.3298V10.0167V10.1641C10.3741 9.48773 10.5805 8.97821 10.9262 8.67273L23.6892 21.1728L10.9274 33.6721Z" fill="url(#paint0_linear_44_1195)"/>
<path d="M27.9437 25.3411L23.6888 21.1729L27.9433 17.0055L33.0798 19.8636C33.732 20.2266 34.0982 20.6945 34.1594 21.1725V21.1744C34.0982 21.6514 33.732 22.1196 33.0798 22.4825L27.9438 25.341" fill="url(#paint1_linear_44_1195)"/>
<path d="M11.8379 34.0002C11.4814 34.0006 11.1703 33.8867 10.9277 33.6723V33.672L23.6895 21.1727L27.9445 25.3408L12.9919 33.6617C12.5783 33.8915 12.1863 34.0002 11.8379 34.0002Z" fill="url(#paint2_linear_44_1195)"/>
<path d="M23.6894 21.173L10.9264 8.6727C11.169 8.45867 11.4797 8.34517 11.8358 8.34517C12.1851 8.34517 12.5774 8.45432 12.9919 8.68448L27.9438 17.0055L23.6893 21.173" fill="url(#paint3_linear_44_1195)"/>
<path d="M11.8382 34.1481C11.4817 34.1481 11.1702 34.0342 10.9275 33.8198L10.9271 33.8201C10.9261 33.8192 10.9251 33.8183 10.9239 33.8174L10.8576 33.7539C10.8555 33.7519 10.8535 33.7496 10.8511 33.7473L10.9276 33.6724C11.1702 33.8868 11.4813 34.0007 11.8378 34.0003C12.1862 34.0003 12.5782 33.8915 12.9918 33.6618L27.9442 25.3409L28.04 25.4347L27.943 25.4887L12.9918 33.8091C12.6148 34.0184 12.2562 34.1276 11.9323 34.1458C11.901 34.1473 11.8696 34.148 11.8382 34.148" fill="url(#paint4_linear_44_1195)"/>
<path d="M10.8509 33.7473C10.5511 33.4366 10.3741 32.9545 10.3741 32.3293V32.1823C10.3741 32.807 10.5511 33.2895 10.8509 33.6003L10.9274 33.672L10.8509 33.7473" fill="url(#paint5_linear_44_1195)"/>
<path d="M28.0395 25.4345L27.9437 25.3407L33.0798 22.4823C33.7321 22.1194 34.0983 21.6512 34.1595 21.1742C34.1595 21.3493 34.1197 21.5242 34.0405 21.6945C33.8807 22.0378 33.5604 22.3621 33.0799 22.6297L28.0395 25.4346" fill="url(#paint6_linear_44_1195)"/>
<path d="M34.1593 21.1727C34.0981 20.6945 33.7319 20.2266 33.0796 19.8635L27.9431 17.0046L28.0389 16.9108H28.0393L33.0796 19.7165C33.7987 20.117 34.1589 20.6448 34.1593 21.1727" fill="url(#paint7_linear_44_1195)"/>
<path d="M10.3741 10.1641V10.0099C10.3741 9.95425 10.3757 9.89987 10.3786 9.84707V9.84467C10.3786 9.84394 10.3786 9.84317 10.3789 9.84236V9.83641C10.4099 9.29827 10.5805 8.87851 10.8509 8.59821L10.9262 8.67227C10.5805 8.97788 10.3741 9.48754 10.3741 10.1641Z" fill="url(#paint8_linear_44_1195)"/>
<path d="M27.9435 17.0055L12.9915 8.68447C12.577 8.45435 12.1847 8.34521 11.8354 8.34521C11.4793 8.34521 11.1686 8.45871 10.926 8.67273L10.8507 8.59864C10.8742 8.57425 10.8987 8.55073 10.924 8.52813C10.9248 8.52731 10.926 8.52649 10.9268 8.52572C11.1675 8.31333 11.4749 8.19984 11.8278 8.1978H11.8354C12.1847 8.1978 12.577 8.30699 12.9915 8.5372L28.0397 16.9113L28.0393 16.9116L27.9435 17.0055" fill="url(#paint9_linear_44_1195)"/>
<defs>
<linearGradient id="paint0_linear_44_1195" x1="18.5305" y1="9.78088" x2="7.7784" y2="20.7943" gradientUnits="userSpaceOnUse">
<stop stop-color="#00A0FF"/>
<stop offset="0.00657" stop-color="#00A1FF"/>
<stop offset="0.2601" stop-color="#00BEFF"/>
<stop offset="0.5122" stop-color="#00D2FF"/>
<stop offset="0.7604" stop-color="#00DFFF"/>
<stop offset="1" stop-color="#00E3FF"/>
</linearGradient>
<linearGradient id="paint1_linear_44_1195" x1="34.9541" y1="21.1009" x2="10.0285" y2="21.1009" gradientUnits="userSpaceOnUse">
<stop stop-color="#FFE000"/>
<stop offset="0.4087" stop-color="#FFBD00"/>
<stop offset="0.7754" stop-color="#FFA500"/>
<stop offset="1" stop-color="#FF9C00"/>
</linearGradient>
<linearGradient id="paint2_linear_44_1195" x1="25.6855" y1="25.1355" x2="7.46228" y2="43.6654" gradientUnits="userSpaceOnUse">
<stop stop-color="#FF3A44"/>
<stop offset="1" stop-color="#C31162"/>
</linearGradient>
<linearGradient id="paint3_linear_44_1195" x1="7.63701" y1="6.81947" x2="15.7585" y2="15.0902" gradientUnits="userSpaceOnUse">
<stop stop-color="#32A071"/>
<stop offset="0.0685" stop-color="#2DA771"/>
<stop offset="0.4762" stop-color="#15CF74"/>
<stop offset="0.8009" stop-color="#06E775"/>
<stop offset="1" stop-color="#00F076"/>
</linearGradient>
<linearGradient id="paint4_linear_44_1195" x1="25.676" y1="28.0268" x2="11.0844" y2="42.9732" gradientUnits="userSpaceOnUse">
<stop stop-color="#CC2E36"/>
<stop offset="1" stop-color="#9C0E4E"/>
</linearGradient>
<linearGradient id="paint5_linear_44_1195" x1="12.0744" y1="9.77448" x2="2.59939" y2="19.4773" gradientUnits="userSpaceOnUse">
<stop stop-color="#008DE0"/>
<stop offset="0.00657" stop-color="#008DE0"/>
<stop offset="0.2601" stop-color="#00A7E0"/>
<stop offset="0.5122" stop-color="#00B8E0"/>
<stop offset="0.7604" stop-color="#00C4E0"/>
<stop offset="1" stop-color="#00C7E0"/>
</linearGradient>
<linearGradient id="paint6_linear_44_1195" x1="34.9543" y1="21.1733" x2="10.0282" y2="21.1733" gradientUnits="userSpaceOnUse">
<stop stop-color="#E0C500"/>
<stop offset="0.4087" stop-color="#E0A600"/>
<stop offset="0.7754" stop-color="#E09100"/>
<stop offset="1" stop-color="#E08900"/>
</linearGradient>
<linearGradient id="paint7_linear_44_1195" x1="34.954" y1="21.1737" x2="10.0282" y2="21.1737" gradientUnits="userSpaceOnUse">
<stop stop-color="#FFE840"/>
<stop offset="0.4087" stop-color="#FFCE40"/>
<stop offset="0.7754" stop-color="#FFBC40"/>
<stop offset="1" stop-color="#FFB540"/>
</linearGradient>
<linearGradient id="paint8_linear_44_1195" x1="12.0639" y1="9.79791" x2="2.92882" y2="18.7473" gradientUnits="userSpaceOnUse">
<stop stop-color="#40B8FF"/>
<stop offset="0.00657" stop-color="#40B9FF"/>
<stop offset="0.2601" stop-color="#40CEFF"/>
<stop offset="0.5122" stop-color="#40DDFF"/>
<stop offset="0.7604" stop-color="#40E7FF"/>
<stop offset="1" stop-color="#40EAFF"/>
</linearGradient>
<linearGradient id="paint9_linear_44_1195" x1="7.61798" y1="9.46306" x2="14.1338" y2="16.1373" gradientUnits="userSpaceOnUse">
<stop stop-color="#65B895"/>
<stop offset="0.0685" stop-color="#62BD95"/>
<stop offset="0.4762" stop-color="#50DB97"/>
<stop offset="0.8009" stop-color="#44ED98"/>
<stop offset="1" stop-color="#40F498"/>
</linearGradient>
</defs>
</svg>
