<svg width="25" height="20" viewBox="0 0 25 20" fill="none" xmlns="http://www.w3.org/2000/svg">
<path d="M24.7329 2.85982C23.8386 3.25489 22.8915 3.51394 21.9222 3.62854C22.9396 3.02422 23.7046 2.06588 24.0744 0.932574C23.1104 1.50016 22.0591 1.89994 20.9642 2.11523C20.5032 1.62673 19.9486 1.23836 19.3343 0.97382C18.72 0.709281 18.0589 0.574116 17.3912 0.576571C14.6879 0.576571 12.4964 2.76086 12.4964 5.452C12.4964 5.83335 12.5393 6.20625 12.6228 6.56225C10.6837 6.46896 8.78512 5.96779 7.04818 5.09074C5.31124 4.21368 3.77412 2.97999 2.53489 1.46839C2.10043 2.20984 1.87208 3.05626 1.87397 3.91817C1.8748 4.72427 2.07419 5.51745 2.45411 6.22603C2.83403 6.93461 3.38251 7.53626 4.04999 7.97661C3.27393 7.95126 2.51463 7.74167 1.83341 7.36476V7.4251C1.83341 9.788 3.52149 11.7587 5.75835 12.2076C5.33796 12.3204 4.90487 12.3776 4.46992 12.3778C4.15378 12.3778 3.84718 12.3476 3.54774 12.2873C3.86756 13.2623 4.47959 14.1123 5.29883 14.7193C6.11808 15.3264 7.10386 15.6603 8.11929 15.6747C6.3776 17.0318 4.23946 17.7649 2.04099 17.7588C1.64491 17.7588 1.256 17.7347 0.873047 17.6913C3.11737 19.1282 5.71969 19.8892 8.37578 19.8852C17.3793 19.8852 22.3016 12.455 22.3016 6.01195L22.2849 5.3808C23.2451 4.69736 24.0745 3.84317 24.7329 2.85982V2.85982Z" fill="black"/>
</svg>
